<?xml version="1.0" encoding="utf-8"?>
<!-- Generator: Adobe Illustrator 21.0.0, SVG Export Plug-In . SVG Version: 6.00 Build 0)  -->
<svg version="1.1" id="Layer_1" xmlns="http://www.w3.org/2000/svg" xmlns:xlink="http://www.w3.org/1999/xlink" x="0px" y="0px"
	 viewBox="0 0 759.1 447.6" style="enable-background:new 0 0 759.1 447.6;" xml:space="preserve">
<style type="text/css">
	.st0{fill:#00BEDD;}
</style>
<title>banner-bg</title>
<g id="Layer_3">
	<path class="st0" d="M759.1,0v447.6h-18.4l6-6c0.1-0.1,0.3-0.3,0.4-0.4c7.1-7.3,6.9-19.1-0.4-26.2c-7.3-7.1-19-6.9-26.2,0.4
		l-32.1,32.1H636l76.9-76.9c3.6-3.6,5.4-8.3,5.4-13.1c0-4.7-1.8-9.5-5.4-13.1c-7.2-7.2-18.9-7.2-26.2,0l-95.8,95.8
		c-0.5,0.5-1,1-1.5,1.5l-5.7,5.7h-52.3l5.6-5.6l44.5-44.5c3.6-3.6,5.4-8.3,5.4-13.1s-1.8-9.5-5.4-13.1c-7.2-7.2-18.9-7.2-26.2,0
		L479,447.6h-52.3l124.1-124.2c3.6-3.6,5.4-8.3,5.4-13.1c0-4.7-1.8-9.5-5.4-13.1c-7.2-7.2-18.9-7.2-26.2,0L410,412
		c-7.2,7.2-19,7.2-26.2,0c-7.2-7.2-7.2-19,0-26.2l15.2-15.1l151.8-151.9l15.2-15.1c3.6-3.6,5.4-8.3,5.4-13.1c0-4.7-1.8-9.5-5.4-13.1
		c-7.2-7.2-18.9-7.2-26.2,0l-167,167c-3.6,3.6-8.3,5.4-13.1,5.4c-4.7,0-9.5-1.8-13.1-5.4c-7.2-7.2-7.2-18.9,0-26.2l54.7-54.7
		c7-7.2,7-18.6,0-25.8c-7.1-7.3-18.8-7.5-26.2-0.4l-28.7,28.7L226.9,385.8c-7.2,7-18.6,7-25.8,0c-7.3-7.1-7.5-18.8-0.4-26.2
		L420,140.3c3.6-3.6,5.4-8.3,5.4-13.1s-1.8-9.5-5.4-13.1c-7.2-7.2-18.9-7.2-26.2,0L383,125L226.9,281.2L216,292
		c-3.6,3.6-8.3,5.4-13.1,5.4s-9.5-1.8-13.1-5.4c-7.2-7.2-7.2-18.9,0-26.2l86.3-86.3c3.6-3.6,5.4-8.3,5.4-13.1s-1.8-9.5-5.4-13.1
		c-7.2-7.2-18.9-7.2-26.2,0l-167,167c-3.6,3.6-8.3,5.4-13.1,5.4s-9.5-1.8-13.1-5.4c-7.2-7.2-7.2-18.9,0-26.2l55.7-55.8l167-167
		c3.6-3.6,5.4-8.3,5.4-13.1s-1.8-9.5-5.4-13.1c-7.2-7.2-18.9-7.2-26.2,0l-74.8,74.8c-7.2,7-18.6,7-25.8,0
		c-7.3-7.1-7.5-18.8-0.4-26.2l32.1-32.1c3.6-3.6,5.4-8.4,5.4-13.1s-1.8-9.5-5.4-13.1c-7.2-7.2-18.9-7.2-26.2,0l-127,127
		c-7.2,7-18.6,7-25.8,0c-7.3-7.1-7.5-18.8-0.4-26.2L96.7,45l1.8-1.7l-0.1-0.1c2.5-3.3,3.8-7.3,3.8-11.2c0-4.8-1.8-9.5-5.4-13.1
		c-5.6-5.6-14.1-7-21.1-3.5l0,0l-5,3.5L43.7,45.7c-3.6,3.6-8.3,5.4-13.1,5.4s-9.5-1.8-13.1-5.4c-7.2-7.2-7.2-18.9,0-26.2L37.1,0
		H759.1z"/>
</g>
</svg>
